<?xml version="1.0" encoding="UTF-8"?>
<!DOCTYPE svg PUBLIC "-//W3C//DTD SVG 1.0//EN" "http://www.w3.org/TR/2001/REC-SVG-20010904/DTD/svg10.dtd">
<svg fill-opacity="1" xmlns:xlink="http://www.w3.org/1999/xlink" color-rendering="auto" color-interpolation="auto" text-rendering="auto" stroke="black" stroke-linecap="square" stroke-miterlimit="10" shape-rendering="auto" stroke-opacity="1" fill="black" stroke-dasharray="none" font-weight="normal" stroke-width="1" xmlns="http://www.w3.org/2000/svg" font-family="'Dialog'" font-style="normal" stroke-linejoin="miter" font-size="12" stroke-dashoffset="0" image-rendering="auto">
  <!--Unicode Character 'WHITE HEART SUIT' (U+2661)-->
  <defs id="genericDefs"/>
  <g>
    <g>
      <path d="M105.75 215.7188 Q114.1875 199.125 124.4531 190.9688 Q134.7188 182.8125 150.3281 182.8125 Q170.2969 182.8125 183.7969 196.1016 Q197.2969 209.3906 197.2969 229.7812 Q197.2969 243.9844 191.1094 258.1172 Q184.9219 272.25 168.1875 293.2031 Q141.6094 326.6719 131.9062 341.5781 Q122.2031 356.4844 113.0625 377.7188 Q109.5469 385.875 106.5938 385.875 L104.7656 385.875 Q101.9531 385.875 98.4375 377.7188 Q89.2969 356.9062 79.8047 342.1406 Q70.3125 327.375 43.1719 293.2031 Q26.5781 272.25 20.3203 258.1172 Q14.0625 243.9844 14.0625 229.7812 Q14.0625 209.1094 27.5625 195.9609 Q41.0625 182.8125 61.0312 182.8125 Q76.6406 182.8125 86.9062 190.9688 Q97.1719 199.125 105.75 215.7188 ZM107.1562 374.0625 Q115.1719 355.0781 126.2109 338.0625 Q137.25 321.0469 159.6094 293.2031 Q176.625 271.8281 183.5156 258.3281 Q190.4062 244.8281 190.4062 229.7812 Q190.4062 211.6406 179.2266 200.6719 Q168.0469 189.7031 150.3281 189.7031 Q134.8594 189.7031 124.7344 199.5469 Q114.6094 209.3906 105.75 227.8125 Q96.8906 209.3906 86.6953 199.5469 Q76.5 189.7031 61.0312 189.7031 Q43.3125 189.7031 32.2031 200.7422 Q21.0938 211.7812 21.0938 229.7812 Q21.0938 244.8281 27.9141 258.3281 Q34.7344 271.8281 51.8906 293.2031 Q74.1094 321.0469 85.1484 338.0625 Q96.1875 355.0781 104.2031 374.0625 L107.1562 374.0625 Z" stroke="none"/>
    </g>
  </g>
</svg>