<svg width="12" height="11" viewBox="0 0 12 11" fill="none" xmlns="http://www.w3.org/2000/svg">
<path d="M5.10211 0.736776L5.69669 0.177582C5.94844 -0.059194 6.35554 -0.059194 6.60462 0.177582L11.8112 5.07179C12.0629 5.30856 12.0629 5.69144 11.8112 5.92569L6.60462 10.8224C6.35286 11.0592 5.94577 11.0592 5.69669 10.8224L5.10211 10.2632C4.84767 10.0239 4.85303 9.6335 5.11282 9.39924L8.34014 6.50756H0.642785C0.286575 6.50756 0 6.23804 0 5.90302V5.09698C0 4.76196 0.286575 4.49244 0.642785 4.49244H8.34014L5.11282 1.60076C4.85035 1.3665 4.845 0.976071 5.10211 0.736776Z" fill="#2D9CDB"/>
</svg>
